<?xml version="1.0" encoding="utf-8"?>
<!-- Generator: Adobe Illustrator 18.1.1, SVG Export Plug-In . SVG Version: 6.00 Build 0)  -->
<svg version="1.1" id="Layer_1" xmlns="http://www.w3.org/2000/svg" xmlns:xlink="http://www.w3.org/1999/xlink" x="0px" y="0px"
	 viewBox="0 0 128 128" enable-background="new 0 0 128 128" xml:space="preserve">
<g transform="matrix(2.4760713,0,0,2.4760713,-2.9521334,-2.9521466)">
	<path fill="#003B70" d="M18.1,34L18.1,34c-1.3,1.4-2.8,2-4.3,2c-3.1,0-5.4-2.4-5.4-5.6c0-3.2,2.3-5.6,5.4-5.6c1.5,0,3,0.7,4.2,2
		l0.1,0.1l2-2.4l-0.1-0.1c-1.7-2-3.7-2.9-6.2-2.9c-2.5,0-4.8,0.8-6.4,2.3c-1.8,1.6-2.7,3.9-2.7,6.7c0,2.7,0.9,5,2.7,6.7
		c1.6,1.5,3.9,2.3,6.4,2.3c2.5,0,4.5-1,6.2-2.9l0.1-0.1L18.1,34z"/>
	<path fill="#003B70" d="M22.1,39.2h3.6V21.8h-3.6V39.2z"/>
	<path fill="#003B70" d="M39.7,35.4c-1,0.6-1.8,0.9-2.6,0.9c-1.2,0-1.7-0.6-1.7-2V25H39v-3.3h-3.6v-5.4l-3.5,1.9v3.5h-3V25h3v9.8
		c0,2.7,1.6,4.5,4,4.6c1.6,0,2.6-0.4,3.2-0.8l0,0l0.9-3.4L39.7,35.4L39.7,35.4z"/>
	<path fill="#003B70" d="M42.6,39.2h3.6V21.8h-3.6V39.2z"/>
	<path fill="#D9261C" d="M48.3,18.7c-3.3-4.6-8.7-7.4-14.2-7.4c-5.5,0-10.9,2.8-14.2,7.4l-0.2,0.2h4.1l0,0c2.8-2.9,6.4-4.4,10.2-4.4
		c3.8,0,7.4,1.5,10.2,4.4l0,0h4.1L48.3,18.7L48.3,18.7z"/>
</g>
</svg>
