<?xml version="1.0" encoding="utf-8"?>
<!-- Generator: Adobe Illustrator 18.1.1, SVG Export Plug-In . SVG Version: 6.00 Build 0)  -->
<svg version="1.1" id="Layer_1" xmlns="http://www.w3.org/2000/svg" xmlns:xlink="http://www.w3.org/1999/xlink" x="0px" y="0px"
	 viewBox="0 0 300 128" enable-background="new 0 0 300 128" xml:space="preserve">
<path d="M53.2,72.4c0,1.1-0.9,2.1-2.1,2.1H36.7c-1.1,0-2.1-0.9-2.1-2.1V58c0-1.1,0.9-2.1,2.1-2.1h14.4c1.1,0,2.1,0.9,2.1,2.1V72.4z
	 M65.6,83.2c0,2-1.6,3.6-3.6,3.6H25.9c-2,0-3.6-1.6-3.6-3.6V47.1c0-2,1.6-3.6,3.6-3.6H62c2,0,3.6,1.6,3.6,3.6V83.2z M66.6,31.1H21.2
	c-6.2,0-11.4,5.1-11.4,11.4v45.4c0,6.2,5.1,11.4,11.4,11.4h45.4c6.2,0,11.4-5.1,11.4-11.4V42.5C78,36.2,72.9,31.1,66.6,31.1"/>
<path d="M109.5,87.5c-4,0-7.9-1.6-10.7-4.3c-2.4-2.4-3.8-5.6-3.8-8.9h4.1c0,2.2,0.9,4.4,2.6,6c2,2,4.8,3.1,7.8,3.1h0
	c5.7,0,10.3-4,10.3-8.9c0-3.7-2-6.6-11.9-8.9c-4-0.9-6.7-2.2-8.6-3.9c-1.9-1.9-2.9-4.4-2.9-7.6c0-6.4,5.7-11.6,12.8-11.6
	c3.4,0,6.6,1.2,9,3.3c2.5,2.2,3.9,5.1,3.9,8.3h-4.1c0-4.1-3.9-7.5-8.8-7.5c-4.7,0-8.7,3.4-8.7,7.5c0,3.7,1.3,5.9,8.3,7.5
	c7.5,1.7,15.1,4.6,15.1,12.9c0,3.5-1.5,6.8-4.3,9.3C117,86.2,113.4,87.5,109.5,87.5L109.5,87.5z"/>
<path d="M145.5,58.6c-7.3,0-12.6,5.5-12.6,12.8c0,7.2,5.4,12.5,12.6,12.5c7,0,12.4-5.7,12.4-12.6C157.9,64.4,152.5,58.6,145.5,58.6
	 M157.7,99.2V81.3h-0.1c-2.7,4.1-7.2,6.2-12,6.2c-9.3,0-16.6-7-16.6-16.3c0-9.3,7.5-16.2,16.6-16.2c4.8,0,9.4,2.1,12,6.2h0.1v-5.4h4
	v43.4H157.7z"/>
<path d="M218.4,58.6c-7.3,0-12.6,5.5-12.6,12.8c0,7.2,5.4,12.5,12.6,12.5c7,0,12.4-5.7,12.4-12.6C230.7,64.4,225.4,58.6,218.4,58.6
	 M230.5,86.7v-5.4h-0.1c-2.7,4.1-7.2,6.2-12,6.2c-9.3,0-16.6-6.9-16.6-16.3c0-9.3,7.5-16.2,16.6-16.2c4.9,0,9.4,2,12,6.2h0.1v-5.4
	h3.9v30.9H230.5z"/>
<path d="M246.3,68.6v18.1h-4V55.8h4v4.5h0.1c1.7-4,4.7-5,8.7-5.3v4.2C249.7,59.6,246.3,63.1,246.3,68.6"/>
<path d="M272.8,58.6c-6.2,0-11.1,4.5-12,10.6h24.1C283.9,63.1,279,58.6,272.8,58.6 M288.9,72.7h-28.1c0.3,6.1,5.9,11.2,12,11.2
	c4.7,0,9.4-2.7,11.1-7.3h4.2c-2.3,6.4-8.4,10.8-15.2,10.8c-8.9,0-16.1-7.3-16.1-16.2c0-8.8,7.2-16.3,16-16.3c9,0,16.2,7.6,16.2,16.6
	C289,71.9,288.9,72.3,288.9,72.7"/>
<path d="M192.3,86.7v-4.8h-0.1c-1.8,3.8-5.8,5.6-9.9,5.6c-4,0-8.1-1.4-10.7-4.7c-2.2-2.8-2.7-6.5-2.7-10V55.7h4v17.1
	c0,6.4,2.3,11.1,9.4,11.1c2.6,0,4.7-0.7,6.6-2.5c2.7-2.6,3.2-5.7,3.2-9.3V55.7h4v31H192.3z"/>
</svg>
