<?xml version="1.0" encoding="utf-8"?>
<!-- Generator: Adobe Illustrator 18.1.1, SVG Export Plug-In . SVG Version: 6.00 Build 0)  -->
<svg version="1.1" id="Layer_1" xmlns="http://www.w3.org/2000/svg" xmlns:xlink="http://www.w3.org/1999/xlink" x="0px" y="0px"
	 viewBox="0 0 300 128" enable-background="new 0 0 300 128" xml:space="preserve">
<g>
	<defs>
		<rect id="SVGID_1_" x="9.6" y="16.2" width="281" height="93.7"/>
	</defs>
	<clipPath id="SVGID_2_">
		<use xlink:href="#SVGID_1_"  overflow="visible"/>
	</clipPath>
	<path clip-path="url(#SVGID_2_)" fill="#77787B" d="M279.6,109.8H20.7c-6.1,0-11-5-11-11.1V27.2c0-6.1,5-11.1,11-11.1h258.9
		c6.1,0,11,5,11,11.1v71.6C290.7,104.9,285.7,109.8,279.6,109.8"/>
	<path clip-path="url(#SVGID_2_)" fill="#FFFFFF" d="M288.6,98.8c0,5-4,9-9,9H20.7c-4.9,0-9-4-9-9V27.2c0-4.9,4-9,9-9h258.9
		c5,0,9,4,9,9V98.8z"/>
</g>
<g>
	<defs>
		<path id="SVGID_3_" d="M42.4,31.5c-3.1,0-5.6,0.2-7.6,0.8c-1.9,0.6-3.3,1.4-4.5,2.3c-2,1.6-3.4,3.7-4,5.3C25,43.1,25,46.6,25,48.9
			v28.5c0,2.3,0,5.8,1.3,9c0.6,1.6,2,3.8,4,5.3c1.2,0.9,2.5,1.7,4.5,2.3c2,0.6,4.5,0.8,7.6,0.8h28.5c3.1,0,5.6-0.2,7.6-0.8
			c1.9-0.6,3.3-1.4,4.5-2.3c2-1.5,3.4-3.7,4-5.3c1.2-3.1,1.2-6.7,1.2-9V48.9c0-2.2,0-5.8-1.2-9c-0.6-1.6-2-3.8-4-5.3
			c-1.2-0.9-2.5-1.7-4.5-2.3c-2-0.6-4.5-0.8-7.6-0.8H42.4z"/>
	</defs>
	<clipPath id="SVGID_4_">
		<use xlink:href="#SVGID_3_"  overflow="visible"/>
	</clipPath>
	
		<linearGradient id="SVGID_5_" gradientUnits="userSpaceOnUse" x1="-243.1338" y1="380.1414" x2="-240.1805" y2="380.1414" gradientTransform="matrix(0 21.411 21.411 0 -8082.6157 5237.2559)">
		<stop  offset="0" style="stop-color:#EF533F"/>
		<stop  offset="0.1574" style="stop-color:#EF533F"/>
		<stop  offset="0.2835" style="stop-color:#DF5241"/>
		<stop  offset="0.7186" style="stop-color:#C15947"/>
		<stop  offset="1" style="stop-color:#C15947"/>
	</linearGradient>
	<rect x="25" y="31.5" clip-path="url(#SVGID_4_)" fill="url(#SVGID_5_)" width="63.2" height="63.2"/>
</g>
<g>
	<defs>
		<path id="SVGID_6_" d="M79.4,47.3c-0.8,0-0.4,2.5-3,2.5c-2.8,0-2.2-2.5-3.2-2.5H25c0,0.6,0,1.1,0,1.5v25.2h63.2V48.9
			c0-0.5,0-1,0-1.6H79.4z"/>
	</defs>
	<clipPath id="SVGID_7_">
		<use xlink:href="#SVGID_6_"  overflow="visible"/>
	</clipPath>
	
		<linearGradient id="SVGID_8_" gradientUnits="userSpaceOnUse" x1="-239.4327" y1="392.6149" x2="-236.4795" y2="392.6149" gradientTransform="matrix(0 9.0552 9.0552 0 -3498.6235 2215.4441)">
		<stop  offset="0" style="stop-color:#47ABDF"/>
		<stop  offset="0.27" style="stop-color:#44A2D2"/>
		<stop  offset="0.5173" style="stop-color:#44A2D2"/>
		<stop  offset="1" style="stop-color:#429FCC"/>
	</linearGradient>
	<rect x="25" y="47.3" clip-path="url(#SVGID_7_)" fill="url(#SVGID_8_)" width="63.2" height="26.7"/>
</g>
<g>
	<defs>
		<path id="SVGID_9_" d="M42.4,31.5c-3.1,0-5.6,0.2-7.6,0.8c-1.9,0.6-3.3,1.4-4.5,2.3c-2,1.6-3.4,3.7-4,5.3c-1.2,3.1-1.3,6.7-1.3,9
			v28.5c0,2.3,0,5.8,1.3,9c0.6,1.6,2,3.8,4,5.3c1.2,0.9,2.5,1.7,4.5,2.3c2,0.6,4.5,0.8,7.6,0.8h28.5c3.1,0,5.6-0.2,7.6-0.8
			c1.9-0.6,3.3-1.4,4.5-2.3c2-1.5,3.4-3.7,4-5.3c1.2-3.1,1.2-6.7,1.2-9V48.9c0-2.2,0-5.8-1.2-9c-0.6-1.6-2-3.8-4-5.3
			c-1.2-0.9-2.5-1.7-4.5-2.3c-2-0.6-4.5-0.8-7.6-0.8H42.4z"/>
	</defs>
	<clipPath id="SVGID_10_">
		<use xlink:href="#SVGID_9_"  overflow="visible"/>
	</clipPath>
	<path clip-path="url(#SVGID_10_)" fill="#81C241" d="M62.3,65.4c-1.1,2.6-3.3,3.9-5.8,3.9c-2.8,0-4.8-1.6-5.8-3.9
		c-0.5-1.2-0.4-2.2-2.3-2.2H24.9v14.4c0,2.2,0,5.8,1.2,9c0.1,0.2,0.1,0.3,0.2,0.5h60.3c0.1-0.2,0.2-0.3,0.2-0.5
		c1.2-3.1,1.5-6.7,1.5-9V63.1H64.6C62.7,63.1,62.7,64.5,62.3,65.4"/>
	<path clip-path="url(#SVGID_10_)" fill="#F9A51A" d="M87.4,78.9c0,0,0,1-1,1c-1,0-1.1-1-1.1-1h-0.8c0,0.6-0.5,1-1.1,1
		c-0.6,0-1.1-0.4-1.1-1h-0.9c0,0.6-0.5,1-1.1,1c-0.6,0-1.1-0.4-1.1-1h-0.9c0,0.6-0.5,1-1.1,1s-1.1-0.4-1.1-1h-0.9c0,0.6-0.5,1-1.1,1
		c-0.6,0-1.1-0.4-1.1-1h-0.9c0,0.6-0.5,1-1.1,1s-1.1-0.4-1.1-1h-0.8c0,0.6-0.5,1-1.1,1s-1.1-0.4-1.1-1h-0.9c0,0.6-0.5,1-1.1,1
		c-0.6,0-1.1-0.4-1.1-1h-0.9c0,0.6-0.5,1-1.1,1c-0.6,0-1.1-0.4-1.1-1h-0.9c0,0.6-0.5,1-1.1,1c-0.6,0-1.1-0.4-1.1-1h-0.9
		c0,0.6-0.5,1-1.1,1s-1.1-0.4-1.1-1h-0.9c0,0.6-0.5,1-1.1,1c-0.6,0-1.1-0.4-1.1-1h-0.9c0,0.6-0.5,1-1.1,1c-0.6,0-1.1-0.4-1.1-1h-0.9
		c0,0.6-0.5,1-1.1,1c-0.6,0-1.1-0.4-1.1-1h-0.8c0,0.6-0.5,1-1.1,1c-0.6,0-1.1-0.4-1.1-1h-0.9c0,0.6-0.5,1-1.1,1
		c-0.6,0-1.1-0.4-1.1-1h-0.8c0,0.6-0.5,1-1.1,1c-0.6,0-1-0.4-1-1h-0.9c0,0.6-0.5,1-1.1,1c-0.6,0-1.1-0.4-1.1-1h-0.9
		c0,0.6-0.5,1-1.1,1c-0.6,0-1.1-0.4-1.1-1h-0.9c0,0.6-0.5,1-1.1,1c-0.6,0-1.1-0.4-1.1-1h-0.9c0,0.6-0.5,1-1.1,1
		c-0.6,0-1.1-0.4-1.1-1H25c0,2.2,0.3,4.9,1.2,7.4c0.6,1.6,2,3.8,4,5.3c1.2,0.9,2.5,1.7,4.5,2.3c2,0.6,4.5,0.8,7.6,0.8h28.5
		c3.1,0,5.6-0.2,7.6-0.8c1.9-0.6,3.3-1.4,4.5-2.3c2-1.5,3.4-3.7,4-5.3c1-2.5,1.2-5.2,1.2-7.4H87.4z"/>
</g>
<g>
	<defs>
		<rect id="SVGID_11_" x="9.6" y="16.2" width="281" height="93.7"/>
	</defs>
	<clipPath id="SVGID_12_">
		<use xlink:href="#SVGID_11_"  overflow="visible"/>
	</clipPath>
	<path clip-path="url(#SVGID_12_)" fill="#FFFFFF" d="M40,89.6h-5.2c-0.2,0-0.3-0.1-0.3-0.3c0-0.1,0.1-0.3,0.3-0.3H40
		c0.2,0,0.3,0.1,0.3,0.3C40.3,89.5,40.1,89.6,40,89.6 M41.4,84.1c0.1,0.2,0.1,0.5,0.1,0.7c0,1.7-1.2,3.3-2.7,3.8h-2.9
		c-1-0.4-1.7-1-2.2-1.9c-0.2,0.1-0.5,0.2-0.7,0.2c-0.8,0-1.3-0.6-1.3-1.4c0-0.8,0.6-1.3,1.4-1.3h1.1H41.4z M33.5,86.1
		c-0.1-0.4-0.3-0.8-0.3-1.2c0,0,0-0.2,0-0.2H33c-0.5,0.1-0.7,0.5-0.7,0.9c0,0.4,0.3,0.7,0.7,0.7C33.1,86.2,33.4,86.1,33.5,86.1"/>
	<path clip-path="url(#SVGID_12_)" fill="#FFFFFF" d="M38.8,75.8h-5.5v-4.1h5.5V75.8z M41.8,70.8l-2.4,1.8v1.8l2.4,1.8V70.8z
		 M35.7,69.1c0,1.1-0.9,2-2,2c-1.1,0-2-0.9-2-2c0-1.1,0.9-2,2-2C34.8,67.1,35.7,68,35.7,69.1 M34.6,69.1c0-0.5-0.4-0.9-0.9-0.9
		c-0.5,0-0.9,0.4-0.9,0.9c0,0.5,0.4,0.9,0.9,0.9C34.2,70,34.6,69.6,34.6,69.1 M40.3,69.1c0,1.1-0.9,2-2,2c-1.1,0-2-0.9-2-2
		c0-1.1,0.9-2,2-2C39.4,67.1,40.3,68,40.3,69.1 M39.2,69.1c0-0.5-0.4-0.9-0.9-0.9c-0.5,0-0.9,0.4-0.9,0.9c0,0.5,0.4,0.9,0.9,0.9
		C38.8,70,39.2,69.6,39.2,69.1"/>
	<path clip-path="url(#SVGID_12_)" fill="#FFFFFF" d="M38.3,55.9l-2.5,3.3H35l1.4-3.3h-2.1l-0.8,1.2h-0.4v-3.8h0.4l0.8,1.2h2.1
		L35,51.1h0.7l2.5,3.3h3c0.4,0,0.7,0.3,0.7,0.7c0,0.4-0.3,0.7-0.7,0.7H38.3z"/>
	<path clip-path="url(#SVGID_12_)" fill-rule="evenodd" clip-rule="evenodd" fill="#FFFFFF" d="M40.8,37.6h-7
		c-0.6,0-1.1,0.5-1.1,1.1v0.1h9.1v-0.1C41.8,38,41.4,37.6,40.8,37.6"/>
	<path clip-path="url(#SVGID_12_)" fill-rule="evenodd" clip-rule="evenodd" fill="#FFFFFF" d="M32.8,42.5L32.8,42.5
		c0.1,0.5,0.5,0.9,1.1,0.9h7c0.5,0,1-0.4,1-0.9h0v-2.5h-9.1V42.5z"/>
	<path clip-path="url(#SVGID_12_)" fill="#231F20" d="M121.1,70.2c0,2.9-0.8,5.1-2.5,6.9c-2.2,2.2-5.3,3.4-9.5,3.4
		c-1.2,0-2.2-0.1-2.8-0.2v12h-5V61.6c2.4-0.4,5.1-0.6,8.1-0.6c3.9,0,6.9,0.8,8.9,2.5C120.2,65.2,121.1,67.4,121.1,70.2 M116.2,70.5
		c0-1.8-0.6-3.2-1.7-4.2c-1.2-1-2.8-1.4-4.9-1.4c-1.4,0-2.5,0.1-3.3,0.3v11.1c0.7,0.2,1.7,0.3,2.9,0.3c2.2,0,3.9-0.5,5.2-1.6
		C115.6,73.9,116.2,72.4,116.2,70.5"/>
	<path clip-path="url(#SVGID_12_)" fill="#231F20" d="M140.3,92.2h-4.5l-0.4-2.6h-0.1c-1.5,2.1-3.7,3.1-6.5,3.1
		c-2.1,0-3.8-0.7-5.1-2c-1.2-1.2-1.7-2.7-1.7-4.6c0-2.7,1.1-4.8,3.4-6.3c2.3-1.4,5.5-2.1,9.6-2.1v-0.4c0-2.9-1.5-4.4-4.6-4.4
		c-2.2,0-4.2,0.6-5.8,1.7l-1-3.3c2.1-1.3,4.6-1.9,7.7-1.9c5.9,0,8.8,3.1,8.8,9.2v8.2C139.9,89.1,140.1,90.9,140.3,92.2 M135.1,84.6
		v-3.4c-5.5-0.1-8.2,1.4-8.2,4.5c0,1.2,0.3,2,1,2.6c0.6,0.6,1.5,0.9,2.4,0.9c1.1,0,2.1-0.3,3-1c0.9-0.7,1.5-1.6,1.7-2.6
		C135.1,85.2,135.1,84.9,135.1,84.6"/>
	<path clip-path="url(#SVGID_12_)" fill="#231F20" d="M159.4,85.8c0,2.1-0.8,3.8-2.3,5c-1.5,1.3-3.6,1.9-6.3,1.9
		c-2.5,0-4.7-0.5-6.5-1.5l1.1-3.7c1.7,1,3.5,1.6,5.5,1.6c2.5,0,3.8-0.9,3.8-2.8c0-0.8-0.3-1.5-0.8-2c-0.6-0.5-1.5-1.1-2.9-1.6
		c-4-1.5-6-3.6-6-6.4c0-1.9,0.7-3.5,2.2-4.8c1.5-1.3,3.4-1.9,5.8-1.9c2.2,0,4.1,0.4,5.7,1.3l-1.1,3.5c-1.4-0.9-3-1.3-4.6-1.3
		c-1,0-1.9,0.2-2.4,0.7c-0.6,0.5-0.9,1.1-0.9,1.9c0,0.8,0.3,1.4,0.9,1.9c0.5,0.5,1.5,1,3,1.5C157.4,80.5,159.4,82.8,159.4,85.8"/>
	<path clip-path="url(#SVGID_12_)" fill="#231F20" d="M177.6,85.8c0,2.1-0.8,3.8-2.3,5c-1.5,1.3-3.6,1.9-6.3,1.9
		c-2.5,0-4.7-0.5-6.5-1.5l1.1-3.7c1.7,1,3.5,1.6,5.5,1.6c2.5,0,3.8-0.9,3.8-2.8c0-0.8-0.3-1.5-0.8-2c-0.6-0.5-1.5-1.1-2.9-1.6
		c-4-1.5-6-3.6-6-6.4c0-1.9,0.7-3.5,2.2-4.8c1.5-1.3,3.4-1.9,5.8-1.9c2.2,0,4.1,0.4,5.7,1.3l-1.1,3.5c-1.4-0.9-3-1.3-4.6-1.3
		c-1,0-1.9,0.2-2.4,0.7c-0.6,0.5-0.9,1.1-0.9,1.9c0,0.8,0.3,1.4,0.9,1.9c0.5,0.5,1.5,1,3,1.5C175.7,80.5,177.6,82.8,177.6,85.8"/>
	<path clip-path="url(#SVGID_12_)" fill="#231F20" d="M203.1,80.7c0,3.8-1,6.8-3.1,9c-1.8,2-4.1,3-6.8,3c-3.2,0-5.5-1.3-7-4h-0.1
		l-0.3,3.4h-4.2c0.1-1.8,0.2-3.8,0.2-6V59.6h5v13.5c1.5-2.5,3.9-3.7,7.2-3.7c2.7,0,4.9,1,6.6,3.1C202.2,74.6,203.1,77.3,203.1,80.7
		 M198,80.9c0-2.2-0.5-4-1.5-5.3c-1.1-1.5-2.5-2.3-4.4-2.3c-1.2,0-2.3,0.4-3.3,1.2c-1,0.8-1.6,1.9-2,3.2c-0.1,0.5-0.2,1-0.2,1.6v3.9
		c0,1.5,0.5,2.9,1.5,4c1,1.1,2.3,1.7,3.8,1.7c1.9,0,3.3-0.7,4.4-2.1C197.5,85.3,198,83.3,198,80.9"/>
	<path clip-path="url(#SVGID_12_)" fill="#231F20" d="M227.8,80.9c0,3.4-1,6.3-2.9,8.5c-2.1,2.3-4.8,3.4-8.2,3.4
		c-3.3,0-5.9-1.1-7.8-3.3c-1.9-2.2-2.9-4.9-2.9-8.2c0-3.5,1-6.3,3-8.5c2-2.2,4.7-3.3,8.1-3.3c3.3,0,5.9,1.1,7.9,3.3
		C226.8,74.8,227.8,77.5,227.8,80.9 M222.6,81c0-2-0.4-3.8-1.3-5.3c-1-1.8-2.5-2.7-4.5-2.7c-2,0-3.5,0.9-4.6,2.7
		c-0.9,1.5-1.3,3.3-1.3,5.4c0,2,0.4,3.8,1.3,5.3c1.1,1.8,2.6,2.7,4.5,2.7c1.9,0,3.4-0.9,4.5-2.7C222.2,84.8,222.6,83,222.6,81"/>
	<path clip-path="url(#SVGID_12_)" fill="#231F20" d="M252.6,80.9c0,3.4-1,6.3-2.9,8.5c-2.1,2.3-4.8,3.4-8.2,3.4
		c-3.3,0-5.9-1.1-7.8-3.3c-1.9-2.2-2.9-4.9-2.9-8.2c0-3.5,1-6.3,3-8.5c2-2.2,4.7-3.3,8.1-3.3c3.3,0,5.9,1.1,7.9,3.3
		C251.6,74.8,252.6,77.5,252.6,80.9 M247.4,81c0-2-0.4-3.8-1.3-5.3c-1-1.8-2.5-2.7-4.5-2.7c-2,0-3.5,0.9-4.6,2.7
		c-0.9,1.5-1.3,3.3-1.3,5.4c0,2,0.4,3.8,1.3,5.3c1.1,1.8,2.6,2.7,4.5,2.7c1.9,0,3.4-0.9,4.5-2.7C247,84.8,247.4,83,247.4,81"/>
	<path clip-path="url(#SVGID_12_)" fill="#231F20" d="M276.2,92.2h-6.1L263.4,82l-1.9,2.3v7.9h-5V59.6h5v20.2h0.1
		c0.6-1,1.2-1.8,1.8-2.6l5.8-7.4h5.9l-8.2,9.2L276.2,92.2z"/>
	<path clip-path="url(#SVGID_12_)" fill="#77787B" d="M115,52.6h-3.1l-1.7-5.4h-5.9l-1.6,5.4h-3l5.9-18.3h3.6L115,52.6z M109.6,45
		l-1.5-4.8c-0.2-0.5-0.5-1.6-0.9-3.4h-0.1c-0.2,0.8-0.5,1.9-0.9,3.4l-1.5,4.8H109.6z"/>
	<path clip-path="url(#SVGID_12_)" fill="#77787B" d="M128.7,52.6h-2.6l-0.1-2.1h-0.1c-0.8,1.6-2.2,2.4-4.2,2.4
		c-1.6,0-2.9-0.6-4-1.9c-1.1-1.2-1.6-2.9-1.6-4.9c0-2.1,0.6-3.9,1.7-5.2c1.1-1.2,2.5-1.8,4.1-1.8c1.8,0,3,0.6,3.7,1.8v-7.6h2.9V49
		C128.6,50.3,128.6,51.5,128.7,52.6 M125.7,47v-2.2c0-0.4,0-0.7-0.1-0.9c-0.2-0.7-0.5-1.3-1.1-1.8c-0.5-0.5-1.2-0.7-2-0.7
		c-1.1,0-1.9,0.4-2.6,1.3c-0.6,0.9-0.9,2-0.9,3.3c0,1.3,0.3,2.4,0.9,3.2c0.6,0.9,1.5,1.3,2.6,1.3c1,0,1.7-0.4,2.3-1.1
		C125.4,48.8,125.7,48,125.7,47"/>
	<path clip-path="url(#SVGID_12_)" fill="#77787B" d="M143.9,52.6h-2.6l-0.1-2.1H141c-0.8,1.6-2.2,2.4-4.2,2.4c-1.6,0-2.9-0.6-4-1.9
		c-1.1-1.2-1.6-2.9-1.6-4.9c0-2.1,0.6-3.9,1.7-5.2c1.1-1.2,2.5-1.8,4.1-1.8c1.8,0,3,0.6,3.7,1.8v-7.6h2.9V49
		C143.8,50.3,143.8,51.5,143.9,52.6 M140.8,47v-2.2c0-0.4,0-0.7-0.1-0.9c-0.2-0.7-0.5-1.3-1.1-1.8c-0.5-0.5-1.2-0.7-2-0.7
		c-1.1,0-1.9,0.4-2.6,1.3c-0.6,0.9-0.9,2-0.9,3.3c0,1.3,0.3,2.4,0.9,3.2c0.6,0.9,1.5,1.3,2.6,1.3c1,0,1.7-0.4,2.3-1.1
		C140.5,48.8,140.8,48,140.8,47"/>
	<path clip-path="url(#SVGID_12_)" fill="#77787B" d="M160.2,41.6H157V48c0,1.6,0.6,2.4,1.7,2.4c0.5,0,1,0,1.3-0.1l0.1,2.2
		c-0.6,0.2-1.3,0.3-2.3,0.3c-1.2,0-2.1-0.4-2.7-1.1c-0.7-0.7-1-1.9-1-3.6v-6.6h-1.9v-2.2h1.9V37l2.9-0.9v3.3h3.2V41.6z"/>
	<path clip-path="url(#SVGID_12_)" fill="#77787B" d="M174.5,45.9c0,2-0.6,3.7-1.7,5c-1.2,1.3-2.8,2-4.8,2c-1.9,0-3.5-0.6-4.6-1.9
		c-1.1-1.3-1.7-2.9-1.7-4.9c0-2,0.6-3.7,1.8-5c1.2-1.3,2.8-2,4.8-2c1.9,0,3.5,0.6,4.7,1.9C173.9,42.3,174.5,43.9,174.5,45.9
		 M171.4,46c0-1.2-0.3-2.2-0.8-3.1c-0.6-1-1.5-1.6-2.6-1.6c-1.2,0-2.1,0.5-2.7,1.6c-0.5,0.9-0.8,1.9-0.8,3.2c0,1.2,0.3,2.2,0.8,3.1
		c0.6,1,1.5,1.6,2.7,1.6c1.1,0,2-0.5,2.6-1.6C171.2,48.2,171.4,47.2,171.4,46"/>
</g>
</svg>
