<?xml version="1.0" encoding="utf-8"?>
<!-- Generator: Adobe Illustrator 18.1.1, SVG Export Plug-In . SVG Version: 6.00 Build 0)  -->
<svg version="1.1" id="Layer_1" xmlns="http://www.w3.org/2000/svg" xmlns:xlink="http://www.w3.org/1999/xlink" x="0px" y="0px"
	 viewBox="0 0 300 128" enable-background="new 0 0 300 128" xml:space="preserve">
<path fill="#003087" d="M57.3,33.2c-3.4-3.8-9.4-5.5-17.2-5.5H17.6c-1.6,0-2.9,1.2-3.2,2.7L5,90c-0.2,1.2,0.7,2.2,1.9,2.2h13.9
	L24.3,70l-0.1,0.7c0.2-1.6,1.6-2.7,3.2-2.7H34c13,0,23.2-5.3,26.1-20.5c0.1-0.5,0.2-0.9,0.2-1.3c-0.4-0.2-0.4-0.2,0,0
	C61.2,40.5,60.3,36.7,57.3,33.2"/>
<path fill="#009CDE" d="M225.8,47h-15.6c-1.1,0-2,0.8-2.1,1.8l-6.3,39.9c-0.1,0.8,0.5,1.5,1.3,1.5h8c0.7,0,1.4-0.5,1.5-1.3l1.8-11.3
	c0.2-1.1,1.1-1.8,2.1-1.8h4.9c10.2,0,16.2-5,17.7-14.8c0.7-4.3,0-7.7-2-10C234.9,48.3,231,47,225.8,47 M227.6,61.5
	c-0.9,5.6-5.1,5.6-9.2,5.6H216l1.6-10.4c0.1-0.6,0.6-1.1,1.3-1.1h1.1c2.8,0,5.5,0,6.8,1.6C227.7,58.1,227.9,59.6,227.6,61.5"/>
<path fill="#003087" d="M114.9,47H99.3c-1.1,0-2,0.8-2.1,1.8l-6.3,39.9c-0.1,0.8,0.5,1.5,1.3,1.5h7.4c1.1,0,2-0.8,2.1-1.8l1.7-10.8
	c0.2-1.1,1.1-1.8,2.1-1.8h4.9c10.2,0,16.2-5,17.7-14.8c0.7-4.3,0-7.7-2-10C124,48.3,120.1,47,114.9,47 M116.6,61.5
	c-0.9,5.6-5.1,5.6-9.2,5.6h-2.3l1.6-10.4c0.1-0.6,0.6-1.1,1.3-1.1h1.1c2.8,0,5.5,0,6.8,1.6C116.7,58.1,117,59.6,116.6,61.5"/>
<path fill="#003087" d="M161.4,61.4h-7.4c-0.6,0-1.2,0.5-1.3,1.1l-0.3,2.1l-0.5-0.8c-1.6-2.3-5.2-3.1-8.8-3.1
	c-8.2,0-15.3,6.2-16.6,15c-0.7,4.4,0.3,8.5,2.8,11.4c2.3,2.7,5.5,3.8,9.4,3.8c6.6,0,10.3-4.3,10.3-4.3l-0.3,2.1
	c-0.1,0.8,0.5,1.5,1.3,1.5h6.7c1.1,0,2-0.8,2.1-1.8l4-25.5C162.8,62.1,162.1,61.4,161.4,61.4 M151,75.9c-0.7,4.3-4.1,7.1-8.4,7.1
	c-2.2,0-3.9-0.7-5-2c-1.1-1.3-1.5-3.2-1.2-5.2c0.7-4.2,4.1-7.2,8.3-7.2c2.1,0,3.8,0.7,5,2C150.8,71.9,151.3,73.8,151,75.9"/>
<path fill="#009CDE" d="M272.3,61.4h-7.4c-0.6,0-1.2,0.5-1.3,1.1l-0.3,2.1l-0.5-0.8c-1.6-2.3-5.2-3.1-8.8-3.1
	c-8.2,0-15.3,6.2-16.6,15c-0.7,4.4,0.3,8.5,2.8,11.4c2.3,2.7,5.5,3.8,9.4,3.8c6.6,0,10.3-4.3,10.3-4.3l-0.3,2.1
	c-0.1,0.8,0.5,1.5,1.3,1.5h6.7c1.1,0,2-0.8,2.1-1.8l4-25.5C273.7,62.1,273.1,61.4,272.3,61.4 M261.9,75.9c-0.7,4.3-4.1,7.1-8.4,7.1
	c-2.2,0-3.9-0.7-5-2c-1.1-1.3-1.5-3.2-1.2-5.2c0.7-4.2,4.1-7.2,8.3-7.2c2.1,0,3.8,0.7,5,2C261.8,71.9,262.3,73.8,261.9,75.9"/>
<path fill="#003087" d="M201,61.4h-7.5c-0.7,0-1.4,0.4-1.8,0.9l-10.3,15.2L177,62.9c-0.3-0.9-1.1-1.5-2.1-1.5h-7.4
	c-0.9,0-1.5,0.9-1.2,1.7l8.2,24.2l-7.8,10.9c-0.6,0.9,0,2,1.1,2h7.5c0.7,0,1.4-0.3,1.8-0.9l24.9-35.9
	C202.7,62.5,202.1,61.4,201,61.4"/>
<path fill="#009CDE" d="M281.1,48.1l-6.4,40.6c-0.1,0.8,0.5,1.5,1.3,1.5h6.4c1.1,0,2-0.8,2.1-1.8l6.3-39.9c0.1-0.8-0.5-1.5-1.3-1.5
	h-7.2C281.7,47,281.2,47.4,281.1,48.1"/>
<path fill="#003087" d="M57.3,33.2c-3.4-3.8-9.4-5.5-17.2-5.5H17.6c-1.6,0-2.9,1.2-3.2,2.7L5,90c-0.2,1.2,0.7,2.2,1.9,2.2h13.9
	L24.3,70l-0.1,0.7c0.2-1.6,1.6-2.7,3.2-2.7H34c13,0,23.2-5.3,26.1-20.5c0.1-0.5,0.2-0.9,0.2-1.3c-0.4-0.2-0.4-0.2,0,0
	C61.2,40.5,60.3,36.7,57.3,33.2"/>
<path fill="#003087" d="M28.1,46.2c0.1-0.9,0.8-1.7,1.6-2.1c0.4-0.2,0.8-0.3,1.2-0.3h17.7c2.1,0,4,0.1,5.8,0.4
	c0.5,0.1,1,0.2,1.5,0.3c0.5,0.1,0.9,0.2,1.4,0.4c0.2,0.1,0.4,0.1,0.7,0.2c0.9,0.3,1.7,0.6,2.4,1c0.9-5.6,0-9.5-3.1-13
	c-3.4-3.8-9.4-5.5-17.2-5.5H17.6c-1.6,0-2.9,1.2-3.2,2.7L5,90c-0.2,1.2,0.7,2.2,1.9,2.2h13.9L24.3,70L28.1,46.2z"/>
<path fill="#009CDE" d="M60.3,46.2L60.3,46.2c-0.1,0.4-0.1,0.9-0.2,1.3C57.1,62.7,47,68,34,68h-6.6c-1.6,0-2.9,1.2-3.2,2.7
	l-3.4,21.5l-1,6.1c-0.2,1,0.6,2,1.7,2h11.7c1.4,0,2.6-1,2.8-2.4l0.1-0.6l2.2-14l0.1-0.8c0.2-1.4,1.4-2.4,2.8-2.4H43
	c11.4,0,20.3-4.6,22.9-18c1.1-5.6,0.5-10.2-2.3-13.5C62.7,47.7,61.6,46.8,60.3,46.2"/>
<path fill="#012169" d="M57.2,44.9c-0.5-0.1-0.9-0.3-1.4-0.4c-0.5-0.1-1-0.2-1.5-0.3c-1.8-0.3-3.7-0.4-5.8-0.4H30.8
	c-0.4,0-0.8,0.1-1.2,0.3c-0.8,0.4-1.4,1.2-1.6,2.1L24.3,70l-0.1,0.7c0.2-1.6,1.6-2.7,3.2-2.7H34c13,0,23.2-5.3,26.1-20.5
	c0.1-0.5,0.2-0.9,0.2-1.3c-0.8-0.4-1.6-0.7-2.4-1C57.7,45.1,57.5,45,57.2,44.9"/>
</svg>
