<?xml version="1.0" encoding="utf-8"?>
<!-- Generator: Adobe Illustrator 18.1.1, SVG Export Plug-In . SVG Version: 6.00 Build 0)  -->
<svg version="1.1" id="Layer_1" xmlns="http://www.w3.org/2000/svg" xmlns:xlink="http://www.w3.org/1999/xlink" x="0px" y="0px"
	 viewBox="0 0 300 128" enable-background="new 0 0 300 128" xml:space="preserve">
<g id="layer1" transform="translate(620.34041,-56.426733)">
	<g id="logotype" transform="translate(0.4494891,0.3945659)">
		<g id="g17202">
			<g id="logo">
				<path id="logo-ne" fill="#117ACA" d="M-357.9,93.3c-1.1,0-1.9,0.9-1.9,1.9v13.6h35.9l-16.4-15.5L-357.9,93.3"/>
				<path id="logo-se" fill="#117ACA" d="M-322.5,113c0-1.1-0.9-1.9-1.9-1.9h-13.6V147l15.5-16.4L-322.5,113"/>
				<path id="logo-sw" fill="#117ACA" d="M-342.2,148.3c1.1,0,1.9-0.9,1.9-1.9v-13.6h-35.9l16.4,15.5L-342.2,148.3"/>
				<path id="logo-nw" fill="#117ACA" d="M-377.5,128.6c0,1.1,0.9,1.9,1.9,1.9h13.6V94.6l-15.5,16.4L-377.5,128.6"/>
			</g>
			<g id="type">
				<path id="H" fill="#211E1E" d="M-542.3,99.9v16.6h-23.1V99.9l-8.4,0v41.9h8.4v-18h23.1v18h8.4V99.9H-542.3"/>
				<path id="E" fill="#211E1E" d="M-430.2,99.9v41.8h37l-4.7-7.4h-23.8v-10.6h23.1v-7.1h-23.1v-9.6h23.8l4.6-7.2H-430.2"/>
				<path id="C" fill="#211E1E" d="M-605.1,99.9c-8.8,0-13.2,5.3-13.2,13.1v15.6c0,9,5.7,13.2,13.1,13.2l26.4,0l-4.9-7.6h-19.9
					c-4.2,0-6.1-1.5-6.1-6.3v-14.2c0-4.6,1.5-6.4,6.2-6.4h20l4.7-7.4H-605.1"/>
				<path id="S" fill="#211E1E" d="M-467.2,99.8c-5.1,0-10.2,3-10.2,10.9v2c0,8.2,5,11.3,10,11.3h17.5c1.8,0,3.3,0.3,3.3,3.4l0,3.6
					c0,2.8-1.4,3.4-3.4,3.4H-473l-4.7,7.4h28.3c6.8,0,11.5-3.4,11.5-11.2v-2.9c0-7.6-4.3-11.2-11-11.2h-16.7c-1.9,0-3.1-0.5-3.1-3.3
					v-2.9c0-2.3,0.9-3.2,3-3.2l22,0l4.6-7.2L-467.2,99.8"/>
				<path id="A" fill="#211E1E" d="M-509.4,99.9l-19.8,41.8h9.4l3.9-8.6h21.6l3.9,8.6h9.4L-501,99.9H-509.4z M-505.2,108.6l7.6,17.4
					h-15.2L-505.2,108.6"/>
			</g>
		</g>
	</g>
</g>
</svg>
